PathFileType	4	(X/Y/Z)	Patient4_TMGait_0pt7_01_right_43.trc.trc
DataRate	CameraRate	NumFrames	NumMarkers	Units	OrigDataRate	OrigDataStartFrame	OrigNumFrames
84.337349397591	84.337349397591	4	33	mm	84.337349397591	89	       141
Frame#	Time	Sacral			L.Shoulder			Chest			R.Shoulder			Neck			R.ASIS			L.ASIS			R.Thigh.Superior			R.Thigh.Lateral			R.Thigh.Inferior			R.Patella			L.Thigh.Superior			L.Thigh.Lateral			L.Thigh.Inferior			L.Patella			L.Shank.Superior			L.Shank.Lateral			L.Shank.Inferior			R.Shank.Superior			R.Shank.Lateral			R.Shank.Inferior			R.Heel			R.Midfoot.Superior			R.Midfoot.Lateral			R.Toe			L.Heel			L.Midfoot.Lateral			L.Midfoot.Superior			L.Toe			L.Elbow			L.Wrist			R.Elbow			R.Wrist			
		X1	Y1	Z1	X2	Y2	Z2	X3	Y3	Z3	X4	Y4	Z4	X5	Y5	Z5	X6	Y6	Z6	X7	Y7	Z7	X8	Y8	Z8	X9	Y9	Z9	X10	Y10	Z10	X11	Y11	Z11	X12	Y12	Z12	X13	Y13	Z13	X14	Y14	Z14	X15	Y15	Z15	X16	Y16	Z16	X17	Y17	Z17	X18	Y18	Z18	X19	Y19	Z19	X20	Y20	Z20	X21	Y21	Z21	X22	Y22	Z22	X23	Y23	Z23	X24	Y24	Z24	X25	Y25	Z25	X26	Y26	Z26	X27	Y27	Z27	X28	Y28	Z28	X29	Y29	Z29	X30	Y30	Z30	X31	Y31	Z31	X32	Y32	Z32	X33	Y33	Z33	

89	50.283428571429	834.402913110115	1012.261216586521	444.824431453011	1002.234469300406	1431.817287323657	248.093229494343	1119.807205723261	1362.384674072133	399.867833042073	1054.879884719673	1443.530830856771	578.685980076461	1020.480370741271	1495.485222907768	400.656564471705	1061.286278812446	943.680893967319	553.513410566817	1041.519352533188	959.167768179072	280.486120432702	1096.068588242344	738.228200312321	542.196525966290	1012.333202426009	632.446931862142	608.460093820919	1094.358234041554	569.385052615441	539.047123354601	1080.668144354300	460.168973327562	562.112884837692	1105.367592961271	761.043105945886	314.332447104780	1027.516500866547	637.039789624937	257.390074276763	1119.701118764884	567.834112166721	321.069763716107	1126.659853956879	498.288516499455	330.697801101533	1103.857811729397	424.889146475705	323.037976993396	1021.360047581104	304.091197711383	276.562075272601	1082.571647613368	197.415787780550	346.159992703928	998.425692499617	396.996919230369	567.035474188188	873.110239584575	366.969398141991	623.989908849282	853.955047631734	257.542007206863	577.092206736622	650.310402330790	211.317506751361	546.187677472937	811.176056613856	133.796716997546	586.664612310753	701.043325177353	141.538607961397	616.212073171615	863.196411832022	28.166637444981	602.810813280585	965.378270666099	38.457351825927	393.381534834424	1036.329676768244	35.991616445947	309.678590087992	1119.802715963539	97.496563626337	333.830769887535	1247.771646251717	45.133184319364	300.760633148569	906.243826494084	1086.702729799152	155.165905740694	934.141381378727	826.748947435748	164.240648691455	1087.065855232494	1102.280214463824	703.712316091313	1319.600695657296	1108.027865727695	611.260730973240	
90	50.295285714286	833.546840976933	1012.934010745093	442.191665277718	1004.007160957983	1432.431618098550	245.653676186559	1120.181328859847	1362.785997339076	398.413834523595	1053.897753461919	1444.140113039839	576.691381132452	1020.938029384515	1496.093414686286	398.283273249147	1060.256890533180	944.481261851642	551.317670952926	1041.094984371944	959.553320991629	278.549297070009	1100.632875381293	741.557043678693	540.585729943773	1020.465488579704	634.158118245488	607.704514799676	1103.939518428469	572.643004632025	537.924415417055	1092.114783813005	462.383746068358	561.340155486477	1102.894352477980	760.068668131107	312.092251662585	1023.495684907392	637.124064690298	255.613387876662	1114.722439644819	566.966327672219	319.387512839288	1120.791920408369	497.483599694267	329.121192819730	1097.680190299948	424.325074444952	321.719072588586	1014.491383101025	303.861928079672	275.602253744693	1075.033398316587	197.071282083643	345.602979004748	1008.672576244683	399.568546598674	566.385863305704	882.598404364997	372.828820439460	623.592266422058	860.786306827781	263.843829799751	577.206105925876	657.263773370762	225.918889512300	546.240596277279	813.891029477620	139.680043482564	587.034395052079	704.056564768261	153.148649312069	616.271143005954	859.832909838046	28.013400158892	603.516486963472	957.039800369037	38.484728015567	393.311969643181	1027.963431931004	35.906361139959	309.624607703411	1111.566125927968	97.287417431161	333.758913584140	1239.531190814405	44.586718124611	300.718371293499	915.539478927577	1085.707615081139	149.557742165072	956.778904551135	827.334616861910	156.825295099319	1075.679002957072	1102.006814409792	702.362787563259	1310.301720356511	1090.433132415796	614.436150499851	
91	50.307142857143	832.507245831184	1013.475186969962	439.657807016151	1005.651585387780	1432.845046832356	243.338332776238	1120.435733863013	1362.993659687861	397.076885311209	1052.825543979225	1444.560257353523	574.819889304677	1021.384048426569	1496.545569816107	396.034291738750	1059.081133922368	945.164096471753	549.227006390560	1040.546820935243	959.803423254519	276.715857620302	1104.899207669123	745.064304871262	538.723111563035	1028.538921514099	636.158685538449	606.889429308689	1113.218932132549	576.300877715718	536.532232288358	1103.537328234144	465.068890769644	560.277970225704	1100.438672055257	759.165777597953	310.026313829152	1019.571630807502	637.204747973070	253.940062668567	1109.884591863288	566.127963422472	317.758915952267	1115.109602613665	496.697102853227	327.631755086788	1091.681028462822	423.762526236532	320.488915686651	1007.788576193447	303.677274189900	274.649799258600	1067.591722995300	196.727636889825	345.057141778749	1019.093613554932	402.444604044653	565.528821584598	892.486144597725	378.496897878136	623.058885525346	868.318730822036	269.997614791988	577.037153083530	665.152535113599	239.121381443906	546.047289814833	817.862049206291	145.662892912611	587.147242337456	708.494149724105	164.054341310833	616.192387390925	858.494682042679	28.679579457723	604.244738683424	948.719610981027	38.536949407617	393.219881625651	1019.621780663106	35.840504503393	309.555193881018	1103.348960978948	97.086248394563	333.675875677527	1231.302591111605	44.053892765885	300.663492889770	925.118923754042	1084.764541600831	143.875734344825	979.949660491134	828.737931725759	149.663997228654	1064.506002955292	1101.785241092819	700.880759663048	1300.100336531691	1071.818613005971	618.141125876090	
92	50.319000000000	831.317072244278	1013.935347055969	437.216418080433	1007.160389984076	1433.101707100087	241.146282906533	1120.572821798987	1363.061010626193	395.845918920298	1051.675009883253	1444.842780780370	573.059832837416	1021.821241563227	1496.879283311311	393.907302485671	1057.771129439629	945.790342265984	547.277279665995	1039.916383240059	959.967047955993	274.998806086924	1108.788184155022	748.752793020835	536.621010097224	1036.438471935949	638.473430285478	606.008455023867	1122.115021984376	580.367013830448	534.921527096181	1114.855065186495	468.247806950905	559.021953791516	1098.041051243732	758.324897924560	308.086014870836	1015.705449043828	637.273968014582	252.401116831624	1105.177146247607	565.306815171614	316.188383847590	1109.604779492480	495.929700061260	326.258438073021	1085.842713612575	423.209064413803	319.367297861141	1001.227969907640	303.546682488719	273.733730663587	1060.234357202425	196.394197936901	344.534246205156	1029.628597529969	405.629980166133	564.551085639375	902.664943884994	383.903231942355	622.402757348201	876.554074110412	275.862329764557	576.632086059105	673.832571970795	250.517016135018	545.624543806949	823.234990499480	151.543806786387	587.027254808953	714.395783227402	173.865853988057	615.983750299474	859.584544386710	30.233635133798	604.953468759265	940.416657384669	38.613139371480	393.111011614148	1011.304924783004	35.796772310150	309.475693476400	1095.146713227517	96.901003883146	333.582668595844	1223.080808984744	43.550653579805	300.595727565371	935.009047736721	1083.932305630885	138.155822819267	1003.524388396931	831.047482988288	142.841622578738	1053.671558283696	1101.640416991470	699.285777385119	1288.862511234308	1052.386352996191	622.354140989421	
